<svg width="50" height="50" viewBox="0 0 50 50" fill="none" xmlns="http://www.w3.org/2000/svg">
<g opacity="0.9">
<path fill-rule="evenodd" clip-rule="evenodd" d="M4.04157 15.1911C4.34916 12.684 6.4784 10.8 9.00436 10.8H42.0023C44.5862 10.8 46.7445 12.7688 46.9813 15.3418L49.594 43.7364C49.8636 46.6664 47.5574 49.1946 44.615 49.1946H5.52073C2.51781 49.1946 0.192266 46.5663 0.557942 43.5857L4.04157 15.1911ZM9.00436 12.8C7.48878 12.8 6.21124 13.9304 6.02668 15.4347L2.54306 43.8293C2.32365 45.6176 3.71898 47.1946 5.52073 47.1946H44.615C46.3804 47.1946 47.7642 45.6777 47.6024 43.9197L44.9897 15.5251C44.8476 13.9813 43.5527 12.8 42.0023 12.8H9.00436Z" fill="#B01736"/>
<path fill-rule="evenodd" clip-rule="evenodd" d="M25 19.6367C25.5523 19.6367 26 20.0844 26 20.6367V39.3566C26 39.9089 25.5523 40.3566 25 40.3566C24.4477 40.3566 24 39.9089 24 39.3566V20.6367C24 20.0844 24.4477 19.6367 25 19.6367Z" fill="#B01736"/>
<path fill-rule="evenodd" clip-rule="evenodd" d="M14.1523 29.9971C14.1523 29.4448 14.6001 28.9971 15.1523 28.9971H34.8447C35.3969 28.9971 35.8447 29.4448 35.8447 29.9971C35.8447 30.5494 35.3969 30.9971 34.8447 30.9971H15.1523C14.6001 30.9971 14.1523 30.5494 14.1523 29.9971Z" fill="#B01736"/>
<path fill-rule="evenodd" clip-rule="evenodd" d="M14.3984 5.59961C14.3984 2.83818 16.637 0.599609 19.3984 0.599609H30.5984C33.3599 0.599609 35.5984 2.83819 35.5984 5.59961V11.7996H33.5984V5.59961C33.5984 3.94275 32.2553 2.59961 30.5984 2.59961H19.3984C17.7416 2.59961 16.3984 3.94275 16.3984 5.59961V11.7996H14.3984V5.59961Z" fill="#B01736"/>
</g>
</svg>
