<svg width="50" height="48" viewBox="0 0 50 48" fill="none" xmlns="http://www.w3.org/2000/svg">
<path fill-rule="evenodd" clip-rule="evenodd" d="M26.9359 28.8945C26.9359 27.79 27.8313 26.8945 28.9359 26.8945H35.9359C37.0405 26.8945 37.9359 27.79 37.9359 28.8945V35.8945C37.9359 36.9991 37.0405 37.8945 35.9359 37.8945H28.9359C27.8313 37.8945 26.9359 36.9991 26.9359 35.8945V28.8945ZM35.9359 28.8945H28.9359V35.8945H35.9359V28.8945Z" fill="#B01736"/>
<path fill-rule="evenodd" clip-rule="evenodd" d="M10.1469 21.2354V46.0001H13.1469V28.8952C13.1469 27.7906 14.0423 26.8952 15.1469 26.8952H22.1469C23.2514 26.8952 24.1469 27.7906 24.1469 28.8952V46.0001H39.9313V21.2354H41.9313V46.0001C41.9313 47.1047 41.0359 48.0001 39.9313 48.0001H10.1469C9.04228 48.0001 8.14685 47.1047 8.14685 46.0001V21.2354H10.1469ZM22.1469 46.0001V28.8952H15.1469V46.0001H22.1469Z" fill="#B01736"/>
<path fill-rule="evenodd" clip-rule="evenodd" d="M24.9994 2.09833C24.8309 1.96575 24.5832 1.96754 24.4169 2.10188L23.7884 1.32409L24.4169 2.10189L3.15252 19.285C3.06011 19.3597 3.02371 19.4331 3.00858 19.4938C2.99179 19.5611 2.99482 19.6413 3.02481 19.7224C3.08254 19.8785 3.21964 20 3.44601 20H46.5508C46.7788 20 46.9158 19.8774 46.9729 19.72C47.0025 19.6381 47.0049 19.5575 46.9874 19.4901C46.9716 19.4294 46.9343 19.3559 46.8398 19.2815L24.9994 2.09833ZM26.2361 0.52649L25.6207 1.3087L26.2361 0.526491L48.0765 17.7097C49.9285 19.1668 48.8044 22 46.5508 22H3.44601C1.20798 22 0.0755518 19.2001 1.89549 17.7295L23.1599 0.546294C24.0522 -0.174741 25.3346 -0.182719 26.2361 0.52649Z" fill="#B01736"/>
</svg>
