<svg width="66" height="48" viewBox="0 0 66 48" fill="none" xmlns="http://www.w3.org/2000/svg">
<path opacity="0.9" d="M50.6174 0C50.1738 0.00651911 49.7504 0.185502 49.4362 0.498417L43.8425 6.08052C43.5212 6.39996 43.3412 6.83377 43.3412 7.28655C43.3412 7.73933 43.5218 8.17315 43.8431 8.49317L44.1133 8.76222C43.5135 9.39339 42.7343 9.82661 41.8809 10.0038C41.0275 10.181 40.1402 10.0933 39.3378 9.75313C38.2676 9.29857 37.0864 9.17411 35.9451 9.39517C34.803 9.61622 33.7543 10.1727 32.9318 10.9929L32.2756 11.6478C31.5219 10.8003 30.5231 10.207 29.4166 9.94977C27.037 9.52247 24.599 9.52781 22.2212 9.96695C22.8276 9.29371 22.8008 8.26424 22.1601 7.62369L16.5639 2.03916C15.897 1.37421 14.8155 1.37362 14.1486 2.03856L0.500189 15.6586C-0.16673 16.3241 -0.16673 17.4034 0.500189 18.0689L6.09634 23.6535C6.76326 24.319 7.84469 24.319 8.51166 23.6535L8.75276 23.4105C10.1971 24.9935 11.3326 26.8312 12.1022 28.8296C12.9995 30.4624 14.2521 31.8729 15.7681 32.9574C15.2051 33.6271 14.9456 34.5 15.0525 35.3677C15.1594 36.2354 15.622 37.0201 16.3305 37.5344C17.039 38.0482 17.9299 38.2455 18.7898 38.079C18.5606 38.7967 18.5956 39.5725 18.8902 40.2659C19.1841 40.9598 19.7174 41.5258 20.3933 41.8607C21.0697 42.1961 21.8435 42.2785 22.5752 42.0936C22.3478 42.9921 22.5271 43.9444 23.067 44.6983C23.6062 45.4521 24.4501 45.931 25.3754 46.008C26.3007 46.0851 27.2129 45.752 27.8697 45.0977L28.1684 44.8026C28.1565 45.6436 28.4813 46.4537 29.0717 47.0547C29.6614 47.655 30.4673 47.9958 31.31 47.9999C32.1527 48.0047 32.9622 47.6734 33.559 47.079L36.0265 44.6195C36.1209 44.5247 36.2088 44.4245 36.2902 44.319C36.9292 44.7647 37.7101 44.9591 38.484 44.8649C39.2578 44.7706 39.9693 44.3937 40.4819 43.8076C40.9944 43.2209 41.2711 42.4664 41.2598 41.6889L41.6868 42.112C42.4066 42.8315 43.4299 43.1604 44.4353 42.9956C45.4407 42.8303 46.3042 42.1914 46.755 41.2794C47.2057 40.3679 47.1885 39.2953 46.7081 38.3986C47.6458 38.4727 48.5674 38.126 49.2232 37.4528C49.8789 36.7795 50.1995 35.8497 50.0985 34.9168L53.6802 31.3425C55.2439 29.7809 56.1977 27.7126 56.3682 25.5109C56.4697 24.2029 56.6811 22.9056 57.0007 21.6327L57.4912 22.1163C58.1581 22.7818 59.2396 22.7818 59.9065 22.1163L65.5003 16.5342C66.1666 15.8686 66.1666 14.79 65.5003 14.1245L51.8519 0.50442C51.5253 0.178472 51.0798 -0.00109983 50.6178 0.00600051L50.6174 0ZM50.6323 0.888966C50.8526 0.887188 51.064 0.973715 51.219 1.12957L64.8645 14.7467C65.0177 14.8996 65.1038 15.1071 65.1038 15.3234C65.1038 15.5397 65.0177 15.7471 64.8645 15.8994L59.2738 21.4809C59.1206 21.6338 58.9127 21.7204 58.696 21.7204C58.4792 21.7204 58.2719 21.6344 58.1187 21.4815L44.4673 7.86148C44.1496 7.54382 44.1496 7.02941 44.4673 6.71176L50.0639 1.12965C50.2142 0.978528 50.4185 0.891925 50.6323 0.888966ZM15.3441 2.42692C15.5644 2.42336 15.777 2.50929 15.9332 2.66516L21.5269 8.25015C21.8446 8.5684 21.8446 9.08163 21.5269 9.39987L7.87855 23.0199C7.72533 23.1728 7.51747 23.2587 7.3007 23.2587C7.08453 23.2587 6.87667 23.1728 6.72346 23.0199L1.13278 17.4378C0.97956 17.2849 0.892857 17.0775 0.892857 16.8612C0.892857 16.6449 0.979562 16.4374 1.13278 16.2851L14.7812 2.66507C14.9308 2.51572 15.1327 2.42988 15.3441 2.42692ZM44.7395 9.3904L56.2749 20.896C55.8663 22.3811 55.5997 23.9024 55.4797 25.4381C55.3247 27.4275 54.463 29.2962 53.0502 30.7072L49.8226 33.9252C49.6664 33.5892 49.452 33.2834 49.1895 33.0215L35.7649 19.6247C37.6114 19.7379 39.4452 19.2502 40.9898 18.2344C41.1727 18.0916 41.2161 17.8332 41.0884 17.6394C40.9607 17.4456 40.706 17.3816 40.5023 17.493C38.6744 18.6949 36.4182 19.0575 34.3045 18.4892C33.7148 18.3304 33.0853 18.4987 32.653 18.9295L26.4992 25.0706C25.9231 25.6253 25.0964 25.8357 24.3244 25.6241C23.5523 25.4125 22.9495 24.8104 22.7381 24.0394C22.5266 23.269 22.7381 22.444 23.2951 21.8697L33.562 11.6241C34.2586 10.929 35.1471 10.4572 36.1145 10.27C37.0813 10.0827 38.0825 10.1882 38.9894 10.5728C39.9551 10.9811 41.0222 11.0872 42.0491 10.8762C43.0759 10.6647 44.0151 10.146 44.7395 9.3904ZM26.748 10.5431C27.5824 10.5816 28.4138 10.6747 29.2357 10.8216C30.171 11.0439 31.0127 11.5535 31.6421 12.2784L22.6615 21.2403C21.8788 22.0391 21.5789 23.193 21.8729 24.2717C22.1668 25.3497 23.0107 26.1924 24.0916 26.4858C25.1719 26.7792 26.3276 26.4799 27.1288 25.6988L33.2826 19.5578C33.4358 19.4049 33.6436 19.319 33.8604 19.319C34.0766 19.319 34.2844 19.4049 34.4377 19.5578L48.5595 33.6497C49.1177 34.2239 49.3309 35.0495 49.1195 35.8216C48.9087 36.5933 48.3047 37.1966 47.5315 37.4075C46.7583 37.6191 45.9305 37.4075 45.355 36.8504L41.7211 33.2241C41.5454 33.0611 41.2716 33.0653 41.1011 33.2342C40.9313 33.4037 40.9254 33.6763 41.0881 33.8523L45.5232 38.2782C46.0666 38.8554 46.2685 39.675 46.0547 40.4377C45.8409 41.2004 45.2435 41.7966 44.4786 42.0087C43.7143 42.2215 42.8941 42.0194 42.3156 41.4765L35.8714 35.0457C35.695 34.8851 35.4242 34.8911 35.2556 35.0594C35.0869 35.2277 35.081 35.4991 35.2419 35.6745L39.7031 40.1324C40.2406 40.6794 40.4639 41.4599 40.297 42.2073C40.1307 42.9546 39.5968 43.5668 38.8782 43.8352C38.1597 44.1031 37.3538 43.9905 36.7367 43.5359C37.0289 42.7939 37.0277 41.969 36.7349 41.2276C36.4416 40.4862 35.878 39.8828 35.1576 39.5397C34.4366 39.196 33.6124 39.1379 32.8504 39.3767C33.0054 38.6021 32.8634 37.798 32.4525 37.123C32.0415 36.448 31.3924 35.9513 30.6322 35.7315C29.872 35.5116 29.0573 35.5845 28.3482 35.9353C28.4296 35.0689 28.1481 34.2077 27.5714 33.5558C26.9942 32.9033 26.1728 32.5181 25.3016 32.4914C24.4298 32.4642 23.5859 32.7972 22.9694 33.4124L22.1914 34.1888C22.2039 33.3478 21.8785 32.537 21.2887 31.9361C20.699 31.3357 19.8931 30.9955 19.0504 30.9908C18.2076 30.9861 17.3976 31.3179 16.8014 31.9118L16.4005 32.3088C14.9615 31.3031 13.7702 29.9839 12.9174 28.4507C12.1044 26.3575 10.9083 24.4332 9.39106 22.7762L21.0565 11.135C22.9148 10.6537 24.8342 10.4546 26.7518 10.5435L26.748 10.5431ZM18.9284 31.8805C19.5407 31.8527 20.1393 32.0743 20.5858 32.4939C21.0324 32.9135 21.2896 33.4955 21.2991 34.1077C21.308 34.7193 21.0687 35.309 20.6351 35.7422L19.7936 36.579C19.2152 37.1183 18.3968 37.3174 17.6343 37.104C16.8723 36.8907 16.2767 36.2969 16.0629 35.5359C15.8497 34.7755 16.0486 33.9588 16.589 33.3811L17.4252 32.5413C17.8267 32.1413 18.3618 31.9054 18.9284 31.8805ZM25.233 33.4185C25.8192 33.4374 26.375 33.6822 26.7842 34.1012C27.1934 34.5208 27.4244 35.0814 27.428 35.6669C27.4315 36.2518 27.2076 36.8154 26.8038 37.2397L23.4051 40.6344C22.8267 41.1731 22.0077 41.3722 21.2458 41.1589C20.4839 40.9455 19.8882 40.3517 19.6744 39.5914C19.4612 38.8304 19.6602 38.0143 20.2 37.4365L23.5987 34.0419C24.0375 33.6246 24.6267 33.3995 25.233 33.4185ZM29.7987 36.5293C30.3854 36.5494 30.9419 36.7971 31.3499 37.2179C31.7584 37.6393 31.9871 38.2017 31.9877 38.7879C31.9889 39.374 31.762 39.937 31.3552 40.3595L29.0937 42.6157L27.242 44.4636C26.6689 45.0361 25.8333 45.2601 25.05 45.0509C24.2672 44.8417 23.6549 44.2319 23.4453 43.4507C23.235 42.6691 23.4583 41.8353 24.0314 41.2627L28.1506 37.158C28.593 36.7349 29.1863 36.5079 29.7987 36.5293ZM33.8245 40.1615C34.4112 40.1805 34.9683 40.4258 35.3775 40.846C35.7867 41.2656 36.0171 41.8274 36.0195 42.4129C36.0224 42.9985 35.798 43.5621 35.3923 43.9858L32.9308 46.4453C32.3571 47.0112 31.5245 47.2299 30.7459 47.0195C29.9668 46.8097 29.3581 46.2023 29.1478 45.4253C28.937 44.6477 29.1567 43.8174 29.7238 43.2444L32.1884 40.7849C32.6285 40.3671 33.2169 40.1419 33.8245 40.1615Z" fill="#B01736"/>
</svg>
