<svg width="49" height="48" viewBox="0 0 49 48" fill="none" xmlns="http://www.w3.org/2000/svg">
<g clip-path="url(#clip0_1_404)">
<path fill-rule="evenodd" clip-rule="evenodd" d="M11.275 0H38.7218V11.7467H42.1261C45.9204 11.7467 48.9984 14.8191 48.9984 18.6117V39.4262L40.6807 39.4189V48H9.31896V39.4189L0.998413 39.4262V18.6117C0.998413 14.8191 4.07645 11.7467 7.87075 11.7467H11.275V0ZM13.275 11.7467H36.7218V2H13.275V11.7467ZM9.31896 37.4189V28.8361H40.6807V37.4189L46.9984 37.4244V18.6117C46.9984 15.926 44.8182 13.7467 42.1261 13.7467H7.87075C5.17865 13.7467 2.99841 15.926 2.99841 18.6117V37.4244L9.31896 37.4189ZM11.319 30.8361V46H38.6807V30.8361H11.319Z" fill="#B01736"/>
</g>
<defs>
<clipPath id="clip0_1_404">
<rect width="48" height="48" fill="white" transform="translate(0.998413)"/>
</clipPath>
</defs>
</svg>
