<svg width="49" height="48" viewBox="0 0 49 48" fill="none" xmlns="http://www.w3.org/2000/svg">
<g opacity="0.9">
<path fill-rule="evenodd" clip-rule="evenodd" d="M6.80469 9.64648C6.80469 11.146 8.04426 12.4009 9.60425 12.4009C11.164 12.4009 12.4038 11.1454 12.4038 9.64648C12.4038 9.45908 12.2979 8.92962 11.9543 8.02431C11.6374 7.18942 11.1985 6.23629 10.7288 5.2969C10.3438 4.52689 9.94929 3.78849 9.60428 3.16238C9.25931 3.78842 8.8649 4.5267 8.4799 5.29658C8.01011 6.23602 7.57116 7.18922 7.25423 8.02418C6.91058 8.92957 6.80469 9.45907 6.80469 9.64648ZM10.3176 0.377074C10.7361 1.0809 14.4038 7.31764 14.4038 9.64648C14.4038 12.2676 12.2509 14.4009 9.60425 14.4009C6.95755 14.4009 4.80469 12.2683 4.80469 9.64648C4.80469 7.31746 8.47307 1.08014 8.89087 0.377074C9.18857 -0.12264 10.0199 -0.12264 10.3176 0.377074Z" fill="#B01736"/>
<path fill-rule="evenodd" clip-rule="evenodd" d="M12.004 14.9575H7.20446C6.98367 14.9575 6.80469 15.1365 6.80469 15.3573V26.4061H12.4038V15.3573C12.4038 15.1365 12.2248 14.9575 12.004 14.9575ZM7.20446 12.9575C5.8791 12.9575 4.80469 14.0319 4.80469 15.3573V28.4061H14.4038V15.3573C14.4038 14.0319 13.3294 12.9575 12.004 12.9575H7.20446Z" fill="#B01736"/>
<path fill-rule="evenodd" clip-rule="evenodd" d="M26.4026 14.9575H21.6031C21.3823 14.9575 21.2033 15.1365 21.2033 15.3573V26.4061H26.8024V15.3573C26.8024 15.1365 26.6234 14.9575 26.4026 14.9575ZM21.6031 12.9575C20.2777 12.9575 19.2033 14.0319 19.2033 15.3573V28.4061H28.8024V15.3573C28.8024 14.0319 27.728 12.9575 26.4026 12.9575H21.6031Z" fill="#B01736"/>
<path fill-rule="evenodd" clip-rule="evenodd" d="M28.8024 9.64648C28.8024 7.31764 25.1347 1.0809 24.7162 0.377074C24.4185 -0.12264 23.5872 -0.12264 23.2895 0.377074C22.8717 1.08014 19.2033 7.31746 19.2033 9.64648C19.2033 12.2683 21.3562 14.4009 24.0029 14.4009C26.6496 14.4009 28.8031 12.2676 28.8024 9.64648ZM24.0029 3.16238C23.6579 3.78842 23.2635 4.5267 22.8785 5.29658C22.4087 6.23602 21.9698 7.18922 21.6529 8.02418C21.3092 8.92957 21.2033 9.45907 21.2033 9.64648C21.2033 11.146 22.4429 12.4009 24.0029 12.4009C25.5631 12.4009 26.8028 11.1451 26.8024 9.64702V9.64648C26.8024 9.45908 26.6965 8.92962 26.3529 8.02431C26.036 7.18942 25.5972 6.23629 25.1274 5.2969C24.7424 4.52689 24.3479 3.78849 24.0029 3.16238Z" fill="#B01736"/>
<path fill-rule="evenodd" clip-rule="evenodd" d="M40.8012 14.9575H36.0017C35.7809 14.9575 35.6019 15.1365 35.6019 15.3573V26.4061H41.201V15.3573C41.201 15.1365 41.022 14.9575 40.8012 14.9575ZM36.0017 12.9575C34.6763 12.9575 33.6019 14.0319 33.6019 15.3573V28.4061H43.201V15.3573C43.201 14.0319 42.1266 12.9575 40.8012 12.9575H36.0017Z" fill="#B01736"/>
<path fill-rule="evenodd" clip-rule="evenodd" d="M35.6019 9.64648C35.6019 11.146 36.8415 12.4009 38.4015 12.4009C39.9613 12.4009 41.201 11.1454 41.201 9.64648C41.201 9.45908 41.0951 8.92962 40.7515 8.02432C40.4347 7.18942 39.9958 6.23629 39.526 5.2969C39.141 4.52689 38.7465 3.7885 38.4015 3.16238C38.0565 3.78843 37.6621 4.5267 37.2771 5.29658C36.8074 6.23602 36.3684 7.18922 36.0515 8.02418C35.7078 8.92957 35.6019 9.45907 35.6019 9.64648ZM39.1148 0.377074C39.5333 1.0809 43.201 7.31764 43.201 9.64648C43.201 12.2676 41.0482 14.4009 38.4015 14.4009C35.7548 14.4009 33.6019 12.2683 33.6019 9.64648C33.6019 7.31746 37.2703 1.08014 37.6881 0.377074C37.9858 -0.12264 38.8171 -0.12264 39.1148 0.377074Z" fill="#B01736"/>
<path fill-rule="evenodd" clip-rule="evenodd" d="M9.55975 35.2181C10.0468 35.2179 10.595 35.3522 11.0397 35.6964L13.1212 37.3108C13.1213 37.3108 13.1212 37.3108 13.1212 37.3108C13.8085 37.8435 15.0075 37.8422 15.6916 37.3112L17.7742 35.696C18.218 35.3529 18.7654 35.2183 19.2524 35.2181C19.7395 35.2179 20.2875 35.3522 20.7322 35.696L20.7333 35.6968L22.815 37.3108C23.1259 37.5519 23.5775 37.7105 24.1 37.7105C24.6225 37.7105 25.0747 37.5518 25.3873 37.3102C25.3873 37.3102 25.3872 37.3102 25.3873 37.3102L27.4692 35.696C27.914 35.3522 28.462 35.2179 28.9491 35.2181C29.4361 35.2183 29.9834 35.3529 30.4272 35.696L32.5093 37.3108C32.5094 37.3108 32.5093 37.3108 32.5093 37.3108C33.1966 37.8435 34.3956 37.8422 35.0797 37.3112L37.1611 35.6969L37.1623 35.696C37.607 35.3522 38.1551 35.2179 38.6422 35.2181C39.1292 35.2183 39.6765 35.3529 40.1203 35.696L40.1213 35.6968L42.203 37.3108C42.8882 37.842 44.0869 37.843 44.7733 37.3108L46.855 35.6968L48.0804 37.2774L45.9987 38.8914C44.5903 39.9833 42.3834 39.9813 40.9776 38.8914L38.8969 37.2782C38.8969 37.2782 38.897 37.2783 38.8969 37.2782C38.8769 37.2629 38.7891 37.2181 38.6414 37.2181C38.4938 37.218 38.4063 37.2625 38.3859 37.2781C38.3858 37.2781 38.386 37.278 38.3859 37.2781L36.3061 38.891C36.306 38.8911 36.3062 38.8909 36.3061 38.891C34.9005 39.9818 32.6926 39.9835 31.2839 38.8914L29.2039 37.2782C29.2038 37.2782 29.2039 37.2783 29.2039 37.2782C29.184 37.263 29.0962 37.2181 28.9483 37.2181C28.8005 37.218 28.713 37.2626 28.6927 37.2781C28.6927 37.2782 28.6928 37.2781 28.6927 37.2781L26.611 38.8921C25.908 39.4358 25.0118 39.7105 24.1 39.7105C23.1893 39.7105 22.2926 39.4366 21.5895 38.8914C21.5895 38.8914 21.5895 38.8914 21.5895 38.8914L19.5088 37.2782C19.5088 37.2782 19.5089 37.2783 19.5088 37.2782C19.4888 37.2628 19.4011 37.218 19.2531 37.2181C19.1054 37.2181 19.0179 37.2628 18.9978 37.2781C18.9977 37.2781 18.9979 37.278 18.9978 37.2781L16.918 38.891C16.9179 38.8911 16.9181 38.8909 16.918 38.891C15.5124 39.9818 13.3045 39.9835 11.8958 38.8914L9.81524 37.2778C9.81519 37.2778 9.81529 37.2779 9.81524 37.2778C9.79563 37.2628 9.7084 37.218 9.56051 37.2181C9.41299 37.2181 9.32499 37.2627 9.30427 37.2784C9.30417 37.2785 9.30437 37.2783 9.30427 37.2784L7.22383 38.8914C6.50419 39.4493 5.57799 39.6905 4.71326 39.6905C3.84853 39.6905 2.92233 39.4493 2.2027 38.8914L0.121521 37.2774L1.3472 35.6969L3.42814 37.3108C3.42818 37.3108 3.4281 37.3108 3.42814 37.3108C3.72215 37.5387 4.18703 37.6905 4.71326 37.6905C5.23956 37.6905 5.70438 37.5387 5.99839 37.3108L8.08008 35.6968L8.08165 35.6956C8.52549 35.3529 9.07269 35.2183 9.55975 35.2181Z" fill="#B01736"/>
<path fill-rule="evenodd" clip-rule="evenodd" d="M43.1998 28.4749H4.80345C3.2573 28.4749 2.00391 29.7283 2.00391 31.2744V43.198C2.00391 44.7441 3.25731 45.9975 4.80345 45.9975H43.1998C44.7459 45.9975 45.9993 44.7441 45.9993 43.198V31.2744C45.9993 29.7283 44.7459 28.4749 43.1998 28.4749ZM4.80345 26.4749C2.15273 26.4749 0.00390625 28.6237 0.00390625 31.2744V43.198C0.00390625 45.8487 2.15274 47.9975 4.80345 47.9975H43.1998C45.8505 47.9975 47.9993 45.8487 47.9993 43.198V31.2744C47.9993 28.6237 45.8505 26.4749 43.1998 26.4749H4.80345Z" fill="#B01736"/>
</g>
</svg>
