<svg width="48" height="48" viewBox="0 0 48 48" fill="none" xmlns="http://www.w3.org/2000/svg">
<g opacity="0.9" clip-path="url(#clip0_1_380)">
<path fill-rule="evenodd" clip-rule="evenodd" d="M35.7992 2H12.1992C10.5424 2 9.19922 3.34315 9.19922 5V43C9.19922 44.6569 10.5424 46 12.1992 46H35.7992C37.4561 46 38.7992 44.6569 38.7992 43V5C38.7992 3.34315 37.4561 2 35.7992 2ZM12.1992 0C9.43779 0 7.19922 2.23858 7.19922 5V43C7.19922 45.7614 9.4378 48 12.1992 48H35.7992C38.5606 48 40.7992 45.7614 40.7992 43V5C40.7992 2.23858 38.5606 0 35.7992 0H12.1992Z" fill="#B01736"/>
<path fill-rule="evenodd" clip-rule="evenodd" d="M31.5984 2H16.3984V5C16.3984 5.55229 16.8462 6 17.3984 6H30.5984C31.1507 6 31.5984 5.55228 31.5984 5V2ZM14.3984 0V5C14.3984 6.65685 15.7416 8 17.3984 8H30.5984C32.2553 8 33.5984 6.65685 33.5984 5V0H14.3984Z" fill="#B01736"/>
<path fill-rule="evenodd" clip-rule="evenodd" d="M18.1992 40C18.1992 39.4477 18.6469 39 19.1992 39H28.7992C29.3515 39 29.7992 39.4477 29.7992 40C29.7992 40.5523 29.3515 41 28.7992 41H19.1992C18.6469 41 18.1992 40.5523 18.1992 40Z" fill="#B01736"/>
</g>
<defs>
<clipPath id="clip0_1_380">
<rect width="48" height="48" fill="white"/>
</clipPath>
</defs>
</svg>
